<?xml version="1.0" standalone="no"?>
<!DOCTYPE svg PUBLIC "-//W3C//DTD SVG 20010904//EN"
 "http://www.w3.org/TR/2001/REC-SVG-20010904/DTD/svg10.dtd">
<svg version="1.0" xmlns="http://www.w3.org/2000/svg"
 width="192.000000pt" height="192.000000pt" viewBox="0 0 192.000000 192.000000"
 preserveAspectRatio="xMidYMid meet">
<metadata>
Created by potrace 1.14, written by Peter Selinger 2001-2017
</metadata>
<g transform="translate(0.000000,192.000000) scale(0.100000,-0.100000)"
fill="#000000" stroke="none">
<path d="M1052 1870 c-33 -31 -27 -61 28 -135 28 -38 53 -79 56 -92 13 -50
-44 -123 -98 -125 -44 -2 -56 2 -107 37 -50 34 -92 44 -120 26 -17 -11 -4 -34
15 -27 7 3 43 -15 80 -40 36 -25 79 -50 95 -54 99 -29 222 105 189 205 -6 19
-31 59 -56 88 -52 64 -56 87 -16 87 93 0 267 -203 280 -327 2 -25 -7 -81 -23
-145 -41 -156 -41 -161 -5 -234 17 -35 34 -79 37 -98 8 -51 -13 -132 -57 -218
-51 -98 -54 -129 -24 -214 16 -46 23 -80 19 -102 -9 -48 -85 -225 -159 -368
-50 -97 -61 -126 -50 -131 30 -11 59 29 159 224 71 136 115 252 115 301 0 17
-9 52 -21 79 -30 71 -29 91 10 168 48 96 67 159 70 236 2 57 -2 73 -32 130
-39 73 -39 76 -2 224 30 120 29 163 -6 247 -42 100 -142 214 -227 257 -54 28
-121 28 -150 1z"/>
<path d="M767 1840 c-16 -5 -52 -27 -81 -49 -158 -119 -284 -429 -279 -688 1
-52 9 -79 47 -159 25 -53 46 -105 46 -115 0 -11 -9 -52 -20 -91 -28 -100 -26
-157 7 -232 22 -49 169 -305 270 -471 19 -31 53 -46 53 -23 0 20 -99 217 -181
358 -78 135 -109 210 -109 262 0 19 9 66 20 106 11 39 20 84 20 98 0 15 -20
68 -45 118 -36 73 -46 103 -47 146 -5 256 120 552 279 661 86 60 188 27 257
-82 14 -22 14 -28 2 -45 -14 -18 -15 -18 -53 12 -46 37 -77 48 -99 36 -19 -11
-19 -11 65 -72 68 -50 86 -55 116 -36 52 34 45 111 -17 181 -69 78 -165 111
-251 85z"/>
<path d="M911 1355 c2 -31 -2 -59 -7 -63 -5 -5 -53 -26 -108 -47 -109 -43
-156 -79 -156 -119 0 -51 74 -95 225 -133 33 -8 61 -16 63 -18 6 -5 11 -45 13
-107 2 -58 1 -64 -22 -75 -13 -7 -59 -29 -102 -50 -94 -45 -142 -92 -132 -132
10 -43 55 -75 165 -116 58 -21 108 -41 112 -44 3 -3 8 -44 11 -89 6 -90 10
-103 29 -84 8 8 12 37 9 82 -2 42 1 70 7 70 13 0 132 -67 153 -86 22 -20 39
-17 39 5 0 30 -56 77 -137 118 -70 34 -73 38 -74 72 0 20 -2 47 -4 61 -5 43
-8 150 -4 153 2 2 42 19 89 37 103 41 143 76 138 122 -4 45 -47 71 -161 98
l-92 23 0 46 c0 25 -2 70 -6 99 -6 62 -1 68 91 97 91 30 150 74 150 112 l0 23
-62 -31 c-35 -18 -91 -42 -125 -55 l-63 -24 0 39 c0 50 -8 71 -27 71 -11 0
-14 -12 -12 -55z m13 -223 l7 -93 -28 7 c-86 19 -182 57 -195 77 -4 6 2 17 12
24 17 12 193 84 196 80 1 -1 5 -44 8 -95z m137 -183 c89 -24 114 -43 85 -65
-25 -18 -155 -69 -161 -63 -6 7 -13 149 -7 149 3 0 41 -9 83 -21z m-106 -322
c5 -74 4 -107 -4 -107 -20 0 -194 79 -202 92 -4 7 -2 19 4 27 11 13 188 104
193 98 1 -1 5 -50 9 -110z"/>
</g>
</svg>
