<svg xmlns="http://www.w3.org/2000/svg" width="130" height="24" viewBox="0 0 130 24">
    <style>
        .cls-1 {
            /*fill: #575756;*/
            fill: white;
            fill-rule: evenodd;
        }
    </style>
    <path class="cls-1" d="M119.264,10.967A90.4,90.4,0,0,0,116.753.554,0.345,0.345,0,0,0,116.42.31h-10.7a0.35,0.35,0,0,0-.338.255,108.025,108.025,0,0,0-3.52,23.123,0.179,0.179,0,0,0,.176.189h2.972a0.115,0.115,0,0,0,.116-0.1,51.664,51.664,0,0,1,.792-5.208A36.373,36.373,0,0,1,116.491,17.3q1.123,5.607,1.251,6.481a0.114,0.114,0,0,0,.115.1h2.971a0.178,0.178,0,0,0,.177-0.191,123.864,123.864,0,0,0-1.741-12.72m-6.9-7.286c0.342,0.773.662,1.553,0.937,2.351,0.7,2.038,1.654,5.133,2.38,7.87h-8.77q1.17-4.911,2.681-9.575Zm-15.818-2.4a0.366,0.366,0,0,0-.185-0.107A31.773,31.773,0,0,0,90.366.368Q89.2,0.308,83.377.306a0.356,0.356,0,0,0-.356.372l1.225,22.865a0.354,0.354,0,0,0,.352.335H95.49a0.357,0.357,0,0,0,.328-0.222Q99.8,13.9,100.691,7.713a0.727,0.727,0,0,0-.059-0.4,22.434,22.434,0,0,0-4.088-6.026m-2.7,17.774a15.251,15.251,0,0,1-6.348,1.3L87.9,3.673q5.886,0.186,8.074,3.893a35.024,35.024,0,0,1-2.126,11.492M80.5,0.517L79.595,3.387a0.176,0.176,0,0,1-.163.122A36.043,36.043,0,0,0,70.9,4.676a25.242,25.242,0,0,0-1.167,5.508h9.3a0.177,0.177,0,0,1,.168.231l-0.842,2.643a0.177,0.177,0,0,1-.154.122,42.147,42.147,0,0,0-8.691,1.437,14.917,14.917,0,0,0,.43,4.185,10.924,10.924,0,0,0,4.128,1.523,30.628,30.628,0,0,0,5.883.569,0.175,0.175,0,0,1,.168.228l-0.842,2.643a0.176,0.176,0,0,1-.155.123Q77.493,24,75.6,24a31.519,31.519,0,0,1-7.592-.718,0.686,0.686,0,0,1-.439-0.355q-2.314-4.564-2.313-12.9a41.665,41.665,0,0,1,.778-8.455,0.692,0.692,0,0,1,.441-0.513A24.04,24.04,0,0,1,74.4,0q2.787,0,5.948.288A0.179,0.179,0,0,1,80.5.517M52.05,0.31H55.5a0.176,0.176,0,0,1,.17.129l1.561,5.61a0.713,0.713,0,0,1,.023.256L56,19.583l8.022,1.005a0.177,0.177,0,0,1,.147.123l0.911,2.937a0.176,0.176,0,0,1-.168.229H52.748a0.176,0.176,0,0,1-.176-0.172l-0.7-23.214A0.176,0.176,0,0,1,52.05.31M49.7,0.517L48.794,3.387a0.175,0.175,0,0,1-.163.122A36.043,36.043,0,0,0,40.1,4.676a25.248,25.248,0,0,0-1.167,5.508h9.3a0.177,0.177,0,0,1,.168.231l-0.842,2.643a0.177,0.177,0,0,1-.154.122,42.147,42.147,0,0,0-8.691,1.437,14.917,14.917,0,0,0,.43,4.185,10.924,10.924,0,0,0,4.128,1.523,30.628,30.628,0,0,0,5.883.569,0.175,0.175,0,0,1,.168.228l-0.842,2.643a0.176,0.176,0,0,1-.155.123Q46.692,24,44.8,24a31.53,31.53,0,0,1-7.589-.718,0.692,0.692,0,0,1-.443-0.357q-2.312-4.564-2.312-12.895a41.676,41.676,0,0,1,.778-8.453,0.7,0.7,0,0,1,.444-0.516A24.043,24.043,0,0,1,43.6,0q2.788,0,5.949.288A0.179,0.179,0,0,1,49.7.517m-16.565.358a0.176,0.176,0,0,1,.143.225L26.7,23.371a0.706,0.706,0,0,1-.676.506H19.57a0.706,0.706,0,0,1-.7-0.631l-1.841-17A9.286,9.286,0,0,0,15.889,5.8l-3.084,17.5a0.706,0.706,0,0,1-.694.584H6.666a0.71,0.71,0,0,1-.674-0.494A209.966,209.966,0,0,1,0,.522,0.177,0.177,0,0,1,.17.31H5.023A0.174,0.174,0,0,1,5.2.467a142.969,142.969,0,0,0,3.41,19.16A11.581,11.581,0,0,0,10.255,19L11.649,2.228a0.353,0.353,0,0,1,.313-0.322l8.078-.877a0.353,0.353,0,0,1,.389.317L22.267,20.1a11.625,11.625,0,0,0,1.88.236L26.3,6.089a0.714,0.714,0,0,1,.076-0.228L29.281,0.42A0.176,0.176,0,0,1,29.462.329l3.676,0.545"/>
</svg>
